<svg xmlns="http://www.w3.org/2000/svg" viewBox="0 0 50 50" width="50" height="50" preserveAspectRatio="xMidYMid meet" style="width: 100%; height: 100%; transform: translate3d(0px, 0px, 0px);"><defs><clipPath id="__lottie_element_27"><rect width="50" height="50" x="0" y="0"></rect></clipPath><filter id="__lottie_element_32" filterUnits="objectBoundingBox" x="0%" y="0%" width="100%" height="100%"><feComponentTransfer in="SourceGraphic"><feFuncA type="table" tableValues="1.0 0.0"></feFuncA></feComponentTransfer></filter><mask id="__lottie_element_31" mask-type="alpha"><g filter="url(#__lottie_element_32)"><rect width="50" height="50" x="0" y="0" fill="#ffffff" opacity="0"></rect><g transform="matrix(1,0,0,1,0,0)" opacity="1" style="display: block;"><g opacity="1" transform="matrix(0.5967870354652405,0.2952873706817627,-0.2952873706817627,0.5967870354652405,17.462509155273438,2.698139190673828)"><g opacity="1" transform="matrix(1,0,0,1,15.649999618530273,32.595001220703125)"><path fill="rgb(0,0,0)" fill-opacity="1" d=" M-2.3229990005493164,-11.591822624206543 C-3.435206651687622,-6.101990222930908 -3.8581769466400146,3.094177007675171 -3.8581769466400146,3.094177007675171 C-7.8618268966674805,-1.6619741916656494 -8.08961009979248,-7.4052581787109375 -7.17982292175293,-11.592645645141602 C-7.17982292175293,-11.592645645141602 -2.3229990005493164,-11.592411994934082 -2.3229990005493164,-11.591822624206543z"></path></g><g opacity="1" transform="matrix(1,0,0,1,15.649999618530273,17.405000686645508)"><path fill="rgb(0,0,0)" fill-opacity="1" d=" M7.066540241241455,-4.478829383850098 C2.281693935394287,-3.260697364807129 -6.559823036193848,1.5938230752944946 -6.559823036193848,1.5938230752944946 C-3.9526400566101074,-5.401602745056152 2.44567608833313,-8.31921672821045 4.60699987411499,-8.736823081970215 C4.60699987411499,-8.736823081970215 7.068305492401123,-4.47941780090332 7.066540241241455,-4.478829383850098z"></path></g><g opacity="1" transform="matrix(1,0,0,1,25,15.5)"><path fill="rgb(0,0,0)" fill-opacity="1" d=" M9.353917121887207,1.485182523727417 C5.670097351074219,-2.1615636348724365 -2.676823139190674,-7.279176712036133 -2.676823139190674,-7.279176712036133 C-2.557614326477051,-7.220149040222168 -2.2906088829040527,-7.474345684051514 0,-7.5 C3.7480485439300537,-7.542423248291016 8.366549491882324,-6.081953525543213 11.790822982788086,-2.740999937057495 C11.790822982788086,-2.740999937057495 9.353917121887207,1.485182523727417 9.353917121887207,1.485182523727417z"></path></g><g opacity="1" transform="matrix(1,0,0,1,25,34.5)"><path fill="rgb(0,0,0)" fill-opacity="1" d=" M-9.354151725769043,-1.4865940809249878 C-5.339612007141113,2.2348875999450684 2.682353973388672,7.282588481903076 2.682353973388672,7.282588481903076 C2.6784114837646484,7.277181148529053 1.8005586862564087,7.480111122131348 0,7.5 C-4.2807698249816895,7.53365421295166 -8.730670928955078,5.678615093231201 -11.791176795959473,2.73982310295105 C-11.791176795959473,2.73982310295105 -9.354151725769043,-1.4865940809249878 -9.354151725769043,-1.4865940809249878z"></path></g><g opacity="1" transform="matrix(1,0,0,1,34.349998474121094,32.595001220703125)"><path fill="rgb(0,0,0)" fill-opacity="1" d=" M-7.065659523010254,4.483891010284424 C-1.9489163160324097,2.965639352798462 6.56135368347168,-1.5938230752944946 6.56135368347168,-1.5938230752944946 C4.1572065353393555,4.907097816467285 -1.5893959999084473,7.93480110168457 -4.607999801635742,8.736823081970215 C-4.607999801635742,8.736823081970215 -7.065659523010254,4.483891010284424 -7.065659523010254,4.483891010284424z"></path></g><g opacity="1" transform="matrix(1,0,0,1,34.349998474121094,17.405000686645508)"><path fill="rgb(0,0,0)" fill-opacity="1" d=" M2.3688418865203857,11.484955787658691 C3.4457414150238037,6.298773765563965 3.859822988510132,-3.093822956085205 3.859822988510132,-3.093822956085205 C6.0136213302612305,-0.46788597106933594 8.664911270141602,4.763304710388184 7.182000160217285,11.595000267028809 C7.182000160217285,11.595000267028809 2.3606033325195312,11.523795127868652 2.3688418865203857,11.484955787658691z"></path></g></g><g opacity="1" transform="matrix(1,0,0,1,37,13)"><path fill="rgb(0,0,0)" fill-opacity="1" d=" M0,-2 C-1.100000023841858,-2 -2,-1.100000023841858 -2,0 C-2,1.100000023841858 -1.100000023841858,2 0,2 C1.100000023841858,2 2,1.100000023841858 2,0 C2,-1.100000023841858 1.100000023841858,-2 0,-2z"></path></g><g opacity="1" transform="matrix(1.1010220050811768,0,0,1.1010220050811768,25,25)"><path stroke-linecap="butt" stroke-linejoin="miter" fill-opacity="0" stroke-miterlimit="10" stroke="rgb(0,0,0)" stroke-opacity="1" stroke-width="2" d=" M0,-9.998000144958496 C-6.031000137329102,-9.937000274658203 -10.031000137329102,-4.968999862670898 -9.998000144958496,0 C-9.954000473022461,6.531000137329102 -4.468999862670898,10.031000137329102 0,10 C6.281000137329102,9.956000328063965 10,4.718999862670898 9.998000144958496,0.0020000000949949026 C9.996000289916992,-4.438000202178955 6.4679999351501465,-10.062999725341797 0,-9.998000144958496z"></path></g></g></g></mask></defs><g clip-path="url(#__lottie_element_27)"><g mask="url(#__lottie_element_31)" style="display: block;"><g transform="matrix(1,0,0,1,0,0)" opacity="1"><path fill="rgb(0,0,0)" fill-opacity="1" d=" M32.78,4 C28.73,4 16,4 16,4 C9.4,4 4,9.4 4,16 C4,16 4,34 4,34 C4,40.6 9.4,46 16,46 C16,46 16,46 16,46 C16,46 34,46 34,46 C40.6,46 46,40.6 46,34 C46,34 46,16 46,16 C46,9.4 40.6,4 34,4 C34,4 33.54,4 32.78,4"></path><g opacity="1" transform="matrix(1,0,0,1,25,25)"><path stroke-linecap="butt" stroke-linejoin="miter" fill-opacity="0" stroke-miterlimit="10" stroke="rgb(0,0,0)" stroke-opacity="1" stroke-width="2" d=" M7.7769999504089355,-21 C3.7260000705718994,-21 -9,-21 -9,-21 C-15.600000381469727,-21 -21,-15.600000381469727 -21,-9 C-21,-9 -21,9 -21,9 C-21,15.600000381469727 -15.600000381469727,21 -9,21 C-9,21 -9,21 -9,21 C-9,21 9,21 9,21 C15.600000381469727,21 21,15.600000381469727 21,9 C21,9 21,-9 21,-9 C21,-15.600000381469727 15.600000381469727,-21 9,-21 C9,-21 8.543999671936035,-21 7.7769999504089355,-21"></path></g></g></g><g transform="matrix(1,0,0,1,0,0)" opacity="1" style="display: block;"><g opacity="1" transform="matrix(1,0,0,1,25,25)"><path stroke-linecap="butt" stroke-linejoin="miter" fill-opacity="0" stroke-miterlimit="10" stroke="rgb(0,0,0)" stroke-opacity="1" stroke-width="2" d=" M7.7769999504089355,-21 C3.7260000705718994,-21 -9,-21 -9,-21 C-15.600000381469727,-21 -21,-15.600000381469727 -21,-9 C-21,-9 -21,9 -21,9 C-21,15.600000381469727 -15.600000381469727,21 -9,21 C-9,21 -9,21 -9,21 C-9,21 9,21 9,21 C15.600000381469727,21 21,15.600000381469727 21,9 C21,9 21,-9 21,-9 C21,-15.600000381469727 15.600000381469727,-21 9,-21 C9,-21 8.543999671936035,-21 7.7769999504089355,-21"></path></g></g></g></svg>